<svg id="Layer_1" data-name="Layer 1" xmlns="http://www.w3.org/2000/svg" viewBox="0 0 1366 769"><defs><style>.cls-1{fill:#bbead2;}.cls-2{fill:#f1ff74;}.cls-3{fill:#f1d54a;}.cls-4{fill:#596c76;}.cls-5{fill:#e6ffff;}.cls-6{fill:#d9f2ff;}.cls-7{fill:#465a61;}.cls-8{fill:#f1e174;}.cls-9{fill:#f1bc19;}.cls-10{fill:#2aa8ff;}.cls-11{fill:#2a74ff;}.cls-12{fill:#2a54ff;}.cls-13{fill:#2a7497;}.cls-14{fill:#7f8c8d;}.cls-15{fill:#fff;}.cls-16{fill:#2c2f38;}.cls-17{fill:#a5a5a4;}.cls-18{fill:#53b384;}.cls-19{fill:#2a6666;}.cls-20{fill:#41566b;}.cls-21{fill:#35566b;}.cls-22{fill:#24ae5f;}.cls-23{fill:#e64c3c;}.cls-24{fill:#ff3400;}.cls-25{fill:#aa0009;}.cls-26{fill:#b53400;}.cls-27{fill:#77000d;}.cls-28{fill:#97de3d;}.cls-29{fill:#59c36a;}.cls-30{fill:#00a66c;}.cls-31{fill:none;}</style></defs><title>TelaLoginProjetoAGORAVAI</title><path class="cls-1" d="M1366,768c-190.8-154.8-250-290.8-268-388-6.3-33.8-6.5-57.5-19-97C1033.6,139.1,910.2,51.5,813,0h553Z"/><g id="Recycling_Bin" data-name="Recycling Bin"><path class="cls-2" d="M1338.5,577h-88a5.53,5.53,0,0,1-5.5-5l-11-110.7a5.4,5.4,0,0,1,1.4-4.2,5.24,5.24,0,0,1,4.1-1.8h110a5.76,5.76,0,0,1,4.1,1.8,5.53,5.53,0,0,1,1.4,4.2L1344,572A5.53,5.53,0,0,1,1338.5,577Z"/><path class="cls-3" d="M1349.5,455.3h-55V577h44a5.53,5.53,0,0,0,5.5-5l11-110.7a5.49,5.49,0,0,0-5.5-6Z"/><path class="cls-2" d="M1349.5,444.3h-110a5.45,5.45,0,0,1-4.3-2.1,5.64,5.64,0,0,1-1-4.7l11-44a5.55,5.55,0,0,1,5.3-4.2h88a5.44,5.44,0,0,1,5.3,4.2l11,44a5.64,5.64,0,0,1-1,4.7A5.45,5.45,0,0,1,1349.5,444.3Z"/><path class="cls-3" d="M1343.8,393.4a5.55,5.55,0,0,0-5.3-4.2h-44v55h55a5.45,5.45,0,0,0,4.3-2.1,5.64,5.64,0,0,0,1-4.7Z"/><path class="cls-4" d="M1316.5,444.3h-44a5.55,5.55,0,0,1-5.5-5.5v-22a5.55,5.55,0,0,1,5.5-5.5h44a5.55,5.55,0,0,1,5.5,5.5v22A5.55,5.55,0,0,1,1316.5,444.3Z"/><path class="cls-5" d="M1283.8,537.4h-17.9a5.55,5.55,0,0,1-4.8-8.3l8.9-15.5a5.49,5.49,0,0,1,9.5,5.5l-4.2,7.2h8.3a5.55,5.55,0,0,1,5.5,5.5,5.28,5.28,0,0,1-5.3,5.6Z"/><path class="cls-6" d="M1323.1,537.4h-17.9a5.5,5.5,0,0,1,0-11h8.3l-4.2-7.2a5.49,5.49,0,1,1,9.5-5.5l8.9,15.5a5.42,5.42,0,0,1,0,5.5,5.07,5.07,0,0,1-4.6,2.7Z"/><path class="cls-5" d="M1303.4,503.4a5.62,5.62,0,0,1-4.8-2.8l-4.2-7.2-4.2,7.2a5.49,5.49,0,1,1-9.5-5.5l8.9-15.5a5.59,5.59,0,0,1,4.8-2.8,5.39,5.39,0,0,1,4.8,2.8l8.9,15.5a5.53,5.53,0,0,1-2,7.5,5,5,0,0,1-2.7.8Z"/></g><g id="Recycling_Bin-2" data-name="Recycling Bin"><path class="cls-7" d="M1316.5,411.3h-22v33h22a5.55,5.55,0,0,0,5.5-5.5v-22A5.48,5.48,0,0,0,1316.5,411.3Z"/><path class="cls-6" d="M1298.7,500.6a5.5,5.5,0,0,0,4.8,2.8,5.19,5.19,0,0,0,2.7-.7,5.53,5.53,0,0,0,2-7.5l-8.9-15.5a5.59,5.59,0,0,0-4.8-2.8v16.5Z"/></g><path class="cls-8" d="M1360.5,466.3h-132a5.55,5.55,0,0,1-5.5-5.5v-22a5.55,5.55,0,0,1,5.5-5.5h132a5.55,5.55,0,0,1,5.5,5.5v22A5.55,5.55,0,0,1,1360.5,466.3Z"/><path class="cls-9" d="M1360.5,433.3h-66v33h66a5.55,5.55,0,0,0,5.5-5.5v-22A5.48,5.48,0,0,0,1360.5,433.3Z"/><g id="Recycling_Bin-3" data-name="Recycling Bin"><path class="cls-10" d="M1318.5,638h-88a5.53,5.53,0,0,1-5.5-5l-11-110.7a5.4,5.4,0,0,1,1.4-4.2,5.24,5.24,0,0,1,4.1-1.8h110a5.76,5.76,0,0,1,4.1,1.8,5.53,5.53,0,0,1,1.4,4.2L1324,633A5.53,5.53,0,0,1,1318.5,638Z"/><path class="cls-11" d="M1329.5,516.3h-55V638h44a5.53,5.53,0,0,0,5.5-5l11-110.7a5.49,5.49,0,0,0-5.5-6Z"/><path class="cls-10" d="M1329.5,505.3h-110a5.45,5.45,0,0,1-4.3-2.1,5.64,5.64,0,0,1-1-4.7l11-44a5.55,5.55,0,0,1,5.3-4.2h88a5.44,5.44,0,0,1,5.3,4.2l11,44a5.64,5.64,0,0,1-1,4.7A5.45,5.45,0,0,1,1329.5,505.3Z"/><path class="cls-11" d="M1323.8,454.4a5.55,5.55,0,0,0-5.3-4.2h-44v55h55a5.45,5.45,0,0,0,4.3-2.1,5.64,5.64,0,0,0,1-4.7Z"/><path class="cls-4" d="M1296.5,505.3h-44a5.55,5.55,0,0,1-5.5-5.5v-22a5.55,5.55,0,0,1,5.5-5.5h44a5.55,5.55,0,0,1,5.5,5.5v22A5.55,5.55,0,0,1,1296.5,505.3Z"/><path class="cls-5" d="M1263.8,598.4h-17.9a5.55,5.55,0,0,1-4.8-8.3l8.9-15.5a5.49,5.49,0,0,1,9.5,5.5l-4.2,7.2h8.3a5.55,5.55,0,0,1,5.5,5.5,5.28,5.28,0,0,1-5.3,5.6Z"/><path class="cls-6" d="M1303.1,598.4h-17.9a5.5,5.5,0,0,1,0-11h8.3l-4.2-7.2a5.49,5.49,0,0,1,9.5-5.5l8.9,15.5a5.42,5.42,0,0,1,0,5.5,5.07,5.07,0,0,1-4.6,2.7Z"/><path class="cls-5" d="M1283.4,564.4a5.62,5.62,0,0,1-4.8-2.8l-4.2-7.2-4.2,7.2a5.49,5.49,0,1,1-9.5-5.5l8.9-15.5a5.59,5.59,0,0,1,4.8-2.8,5.39,5.39,0,0,1,4.8,2.8l8.9,15.5a5.53,5.53,0,0,1-2,7.5,5,5,0,0,1-2.7.8Z"/></g><g id="Recycling_Bin-4" data-name="Recycling Bin"><path class="cls-7" d="M1296.5,472.3h-22v33h22a5.55,5.55,0,0,0,5.5-5.5v-22A5.48,5.48,0,0,0,1296.5,472.3Z"/><path class="cls-6" d="M1278.7,561.6a5.5,5.5,0,0,0,4.8,2.8,5.19,5.19,0,0,0,2.7-.7,5.53,5.53,0,0,0,2-7.5l-8.9-15.5a5.59,5.59,0,0,0-4.8-2.8v16.5Z"/></g><path class="cls-12" d="M1340.5,527.3h-132a5.55,5.55,0,0,1-5.5-5.5v-22a5.55,5.55,0,0,1,5.5-5.5h132a5.55,5.55,0,0,1,5.5,5.5v22A5.55,5.55,0,0,1,1340.5,527.3Z"/><path class="cls-13" d="M1340.5,494.3h-66v33h66a5.55,5.55,0,0,0,5.5-5.5v-22A5.48,5.48,0,0,0,1340.5,494.3Z"/><path class="cls-14" d="M956.5,680.7a3.22,3.22,0,0,1-3.2-3.2V661.7a6.27,6.27,0,0,1,6.3-6.3h15.8a3.2,3.2,0,0,1,0,6.4H959.6v15.8A3.12,3.12,0,0,1,956.5,680.7Z"/><path class="cls-14" d="M1082.5,680.7a3.22,3.22,0,0,1-3.2-3.2V661.7h-15.8a3.2,3.2,0,0,1,0-6.4h15.8a6.27,6.27,0,0,1,6.3,6.3v15.8A3,3,0,0,1,1082.5,680.7Z"/><path class="cls-14" d="M962.8,690.2a3.22,3.22,0,0,1-3.2-3.2v-6.3h-6.3V687a3.2,3.2,0,0,1-6.4,0v-6.3a6.27,6.27,0,0,1,6.3-6.3h6.3a6.27,6.27,0,0,1,6.3,6.3V687A3,3,0,0,1,962.8,690.2Z"/><path class="cls-14" d="M1088.8,690.2a3.22,3.22,0,0,1-3.2-3.2v-6.3h-6.3V687a3.22,3.22,0,0,1-3.2,3.2,3.16,3.16,0,0,1-3.2-3.2v-6.3a6.27,6.27,0,0,1,6.3-6.3h6.3a6.27,6.27,0,0,1,6.3,6.3V687A2.89,2.89,0,0,1,1088.8,690.2Z"/><path class="cls-15" d="M1011,601.6a17,17,0,1,1-17-17A17,17,0,0,1,1011,601.6Z"/><path class="cls-15" d="M1061.5,601.6a17,17,0,1,1-17-17A17,17,0,0,1,1061.5,601.6Z"/><path class="cls-14" d="M994.3,620.8a18.9,18.9,0,1,1,18.9-18.9A18.95,18.95,0,0,1,994.3,620.8Zm0-31.5a12.6,12.6,0,1,0,12.6,12.6,12.4,12.4,0,0,0-3.7-8.9A13,13,0,0,0,994.3,589.3Z"/><path class="cls-14" d="M1044.7,620.8a18.9,18.9,0,1,1,18.9-18.9A18.95,18.95,0,0,1,1044.7,620.8Zm0-31.5a12.6,12.6,0,1,0,12.6,12.6,12.4,12.4,0,0,0-3.7-8.9A12.64,12.64,0,0,0,1044.7,589.3Z"/><path class="cls-16" d="M997.4,601.9a3.22,3.22,0,0,1-3.2,3.2,3.16,3.16,0,0,1-3.2-3.2,3.2,3.2,0,0,1,6.4,0Z"/><path class="cls-16" d="M1047.9,601.9a3.22,3.22,0,0,1-3.2,3.2,3.16,3.16,0,0,1-3.2-3.2,3.2,3.2,0,0,1,6.4,0Z"/><path class="cls-14" d="M1029,605.1h-19a3.2,3.2,0,1,1,0-6.4h18.9a3.22,3.22,0,0,1,3.2,3.2A3.14,3.14,0,0,1,1029,605.1Z"/><path class="cls-14" d="M1019.5,646.1a3.22,3.22,0,0,1-3.2-3.2v-41a3.22,3.22,0,0,1,3.2-3.2,3.16,3.16,0,0,1,3.2,3.2v41A3.22,3.22,0,0,1,1019.5,646.1Z"/><path class="cls-17" d="M978.5,646.1h34.7v25.2H978.5a3.22,3.22,0,0,1-3.2-3.2V649.2A3.27,3.27,0,0,1,978.5,646.1Z"/><path class="cls-17" d="M1035.3,646.1h25.2a3.22,3.22,0,0,1,3.2,3.2v18.9a3.22,3.22,0,0,1-3.2,3.2h-25.2Z"/><path class="cls-17" d="M1013.2,718.6h12.6v22.1h-12.6V718.6Z"/><path class="cls-14" d="M972.2,737.5h94.6v12.6H972.2V737.5Z"/><path class="cls-18" d="M956.5,706h12.6a6.27,6.27,0,0,1,6.3,6.3v50.4a6.27,6.27,0,0,1-6.3,6.3H956.5a6.27,6.27,0,0,1-6.3-6.3V712.3A6.27,6.27,0,0,1,956.5,706Z"/><path class="cls-19" d="M972.2,721.7H953.3a3.2,3.2,0,1,1,0-6.4h18.9a3.22,3.22,0,0,1,3.2,3.2A3.16,3.16,0,0,1,972.2,721.7Z"/><path class="cls-19" d="M972.2,734.3H953.3a3.2,3.2,0,1,1,0-6.4h18.9a3.22,3.22,0,0,1,3.2,3.2A3.16,3.16,0,0,1,972.2,734.3Z"/><path class="cls-19" d="M972.2,746.9H953.3a3.2,3.2,0,1,1,0-6.4h18.9a3.22,3.22,0,0,1,3.2,3.2A3.16,3.16,0,0,1,972.2,746.9Z"/><path class="cls-19" d="M972.2,759.5H953.3a3.2,3.2,0,1,1,0-6.4h18.9a3.22,3.22,0,0,1,3.2,3.2A3.16,3.16,0,0,1,972.2,759.5Z"/><path class="cls-18" d="M1069.9,706h12.6a6.27,6.27,0,0,1,6.3,6.3v50.4a6.27,6.27,0,0,1-6.3,6.3h-12.6a6.27,6.27,0,0,1-6.3-6.3V712.3A6.34,6.34,0,0,1,1069.9,706Z"/><path class="cls-19" d="M1085.7,721.7h-18.9a3.2,3.2,0,1,1,0-6.4h18.9a3.22,3.22,0,0,1,3.2,3.2A3.29,3.29,0,0,1,1085.7,721.7Z"/><path class="cls-19" d="M1085.7,734.3h-18.9a3.2,3.2,0,0,1,0-6.4h18.9a3.22,3.22,0,0,1,3.2,3.2A3.29,3.29,0,0,1,1085.7,734.3Z"/><path class="cls-19" d="M1085.7,746.9h-18.9a3.2,3.2,0,0,1,0-6.4h18.9a3.22,3.22,0,0,1,3.2,3.2A3.29,3.29,0,0,1,1085.7,746.9Z"/><path class="cls-19" d="M1085.7,759.5h-18.9a3.2,3.2,0,1,1,0-6.4h18.9a3.22,3.22,0,0,1,3.2,3.2A3.29,3.29,0,0,1,1085.7,759.5Z"/><path class="cls-20" d="M991.1,642.9h56.7a3.22,3.22,0,0,1,3.2,3.2V706a19,19,0,0,1-18.9,18.9h-25.2A19,19,0,0,1,988,706V646.1A3.14,3.14,0,0,1,991.1,642.9Z"/><path class="cls-21" d="M1000.6,680.7h37.8v22.1a9.5,9.5,0,0,1-9.5,9.5H1010a9.5,9.5,0,0,1-9.5-9.5V680.7Z"/><path class="cls-19" d="M1013.2,680.7h12.6v12.6h-12.6V680.7Z"/><path class="cls-19" d="M1000.6,655.5h12.6v12.6h-12.6Z"/><path class="cls-22" d="M1029,661.8a3.22,3.22,0,0,1-3.2,3.2,3.16,3.16,0,0,1-3.2-3.2,3.2,3.2,0,0,1,6.4,0Z"/><path class="cls-23" d="M1041.6,661.8a3.22,3.22,0,0,1-3.2,3.2,3.16,3.16,0,0,1-3.2-3.2,3.2,3.2,0,1,1,6.4,0Z"/><g id="Recycling_Bin-5" data-name="Recycling Bin"><path class="cls-24" d="M1298.5,702h-88a5.53,5.53,0,0,1-5.5-5l-11-110.7a5.4,5.4,0,0,1,1.4-4.2,5.24,5.24,0,0,1,4.1-1.8h110a5.76,5.76,0,0,1,4.1,1.8,5.53,5.53,0,0,1,1.4,4.2L1304,697A5.53,5.53,0,0,1,1298.5,702Z"/><path class="cls-25" d="M1309.5,580.3h-55V702h44a5.53,5.53,0,0,0,5.5-5l11-110.7a5.49,5.49,0,0,0-5.5-6Z"/><path class="cls-24" d="M1309.5,569.3h-110a5.45,5.45,0,0,1-4.3-2.1,5.64,5.64,0,0,1-1-4.7l11-44a5.55,5.55,0,0,1,5.3-4.2h88a5.44,5.44,0,0,1,5.3,4.2l11,44a5.64,5.64,0,0,1-1,4.7A5.45,5.45,0,0,1,1309.5,569.3Z"/><path class="cls-25" d="M1303.8,518.4a5.55,5.55,0,0,0-5.3-4.2h-44v55h55a5.45,5.45,0,0,0,4.3-2.1,5.64,5.64,0,0,0,1-4.7Z"/><path class="cls-4" d="M1276.5,569.3h-44a5.55,5.55,0,0,1-5.5-5.5v-22a5.55,5.55,0,0,1,5.5-5.5h44a5.55,5.55,0,0,1,5.5,5.5v22A5.55,5.55,0,0,1,1276.5,569.3Z"/><path class="cls-5" d="M1243.8,662.4h-17.9a5.55,5.55,0,0,1-4.8-8.3l8.9-15.5a5.49,5.49,0,0,1,9.5,5.5l-4.2,7.2h8.3a5.55,5.55,0,0,1,5.5,5.5,5.28,5.28,0,0,1-5.3,5.6Z"/><path class="cls-6" d="M1283.1,662.4h-17.9a5.5,5.5,0,0,1,0-11h8.3l-4.2-7.2a5.49,5.49,0,1,1,9.5-5.5l8.9,15.5a5.42,5.42,0,0,1,0,5.5,5.07,5.07,0,0,1-4.6,2.7Z"/><path class="cls-5" d="M1263.4,628.4a5.62,5.62,0,0,1-4.8-2.8l-4.2-7.2-4.2,7.2a5.49,5.49,0,1,1-9.5-5.5l8.9-15.5a5.59,5.59,0,0,1,4.8-2.8,5.39,5.39,0,0,1,4.8,2.8l8.9,15.5a5.53,5.53,0,0,1-2,7.5,5,5,0,0,1-2.7.8Z"/></g><g id="Recycling_Bin-6" data-name="Recycling Bin"><path class="cls-7" d="M1276.5,536.3h-22v33h22a5.55,5.55,0,0,0,5.5-5.5v-22A5.48,5.48,0,0,0,1276.5,536.3Z"/><path class="cls-6" d="M1258.7,625.6a5.5,5.5,0,0,0,4.8,2.8,5.19,5.19,0,0,0,2.7-.7,5.53,5.53,0,0,0,2-7.5l-8.9-15.5a5.59,5.59,0,0,0-4.8-2.8v16.5Z"/></g><path class="cls-26" d="M1320.5,591.3h-132a5.55,5.55,0,0,1-5.5-5.5v-22a5.55,5.55,0,0,1,5.5-5.5h132a5.55,5.55,0,0,1,5.5,5.5v22A5.55,5.55,0,0,1,1320.5,591.3Z"/><path class="cls-27" d="M1320.5,558.3h-66v33h66a5.55,5.55,0,0,0,5.5-5.5v-22A5.48,5.48,0,0,0,1320.5,558.3Z"/><g id="Recycling_Bin-7" data-name="Recycling Bin"><path class="cls-28" d="M1277.5,761h-88a5.53,5.53,0,0,1-5.5-5l-11-110.7a5.4,5.4,0,0,1,1.4-4.2,5.24,5.24,0,0,1,4.1-1.8h110a5.76,5.76,0,0,1,4.1,1.8,5.53,5.53,0,0,1,1.4,4.2L1283,756A5.53,5.53,0,0,1,1277.5,761Z"/><path class="cls-29" d="M1288.5,639.3h-55V761h44a5.53,5.53,0,0,0,5.5-5l11-110.7a5.49,5.49,0,0,0-5.5-6Z"/><path class="cls-28" d="M1288.5,628.3h-110a5.45,5.45,0,0,1-4.3-2.1,5.64,5.64,0,0,1-1-4.7l11-44a5.55,5.55,0,0,1,5.3-4.2h88a5.44,5.44,0,0,1,5.3,4.2l11,44a5.64,5.64,0,0,1-1,4.7A5.45,5.45,0,0,1,1288.5,628.3Z"/><path class="cls-29" d="M1282.8,577.4a5.55,5.55,0,0,0-5.3-4.2h-44v55h55a5.45,5.45,0,0,0,4.3-2.1,5.64,5.64,0,0,0,1-4.7Z"/><path class="cls-4" d="M1255.5,628.3h-44a5.55,5.55,0,0,1-5.5-5.5v-22a5.55,5.55,0,0,1,5.5-5.5h44a5.55,5.55,0,0,1,5.5,5.5v22A5.55,5.55,0,0,1,1255.5,628.3Z"/><path class="cls-5" d="M1222.8,721.4h-17.9a5.55,5.55,0,0,1-4.8-8.3l8.9-15.5a5.49,5.49,0,0,1,9.5,5.5l-4.2,7.2h8.3a5.55,5.55,0,0,1,5.5,5.5,5.28,5.28,0,0,1-5.3,5.6Z"/><path class="cls-6" d="M1262.1,721.4h-17.9a5.5,5.5,0,0,1,0-11h8.3l-4.2-7.2a5.49,5.49,0,1,1,9.5-5.5l8.9,15.5a5.42,5.42,0,0,1,0,5.5,5.07,5.07,0,0,1-4.6,2.7Z"/><path class="cls-5" d="M1242.4,687.4a5.62,5.62,0,0,1-4.8-2.8l-4.2-7.2-4.2,7.2a5.49,5.49,0,1,1-9.5-5.5l8.9-15.5a5.59,5.59,0,0,1,4.8-2.8,5.39,5.39,0,0,1,4.8,2.8l8.9,15.5a5.53,5.53,0,0,1-2,7.5,5,5,0,0,1-2.7.8Z"/></g><g id="Recycling_Bin-8" data-name="Recycling Bin"><path class="cls-7" d="M1255.5,595.3h-22v33h22a5.55,5.55,0,0,0,5.5-5.5v-22A5.48,5.48,0,0,0,1255.5,595.3Z"/><path class="cls-6" d="M1237.7,684.6a5.5,5.5,0,0,0,4.8,2.8,5.19,5.19,0,0,0,2.7-.7,5.53,5.53,0,0,0,2-7.5l-8.9-15.5a5.59,5.59,0,0,0-4.8-2.8v16.5Z"/></g><path class="cls-29" d="M1299.5,650.3h-132a5.55,5.55,0,0,1-5.5-5.5v-22a5.55,5.55,0,0,1,5.5-5.5h132a5.55,5.55,0,0,1,5.5,5.5v22A5.55,5.55,0,0,1,1299.5,650.3Z"/><path class="cls-30" d="M1299.5,617.3h-66v33h66a5.55,5.55,0,0,0,5.5-5.5v-22A5.48,5.48,0,0,0,1299.5,617.3Z"/><path class="cls-31" d="M813,200c0,162.5,247.3,294,553,294"/><path class="cls-1" d="M1159,277"/><path class="cls-1" d="M199,768H0V585a333.12,333.12,0,0,1,70,62c23.5,27.7,28.8,43.6,51,67C137.9,731.8,162.5,751.8,199,768Z"/></svg>